<?xml version='1.0' encoding='UTF-8'?>
<!DOCTYPE svg PUBLIC "-//W3C//DTD SVG 1.0//EN" "http://www.w3.org/TR/2001/REC-SVG-20010904/DTD/svg10.dtd">
<svg viewBox="0 0 896 248" xmlns="http://www.w3.org/2000/svg" xmlns:inkspace="http://www.inkscape.org/namespaces/inkscape" xmlns:xlink="http://www.w3.org/1999/xlink">
  <defs id="defs_block">
    <filter height="1.504" id="filter_blur" inkspace:collect="always" width="1.1575" x="-0.07875" y="-0.252">
      <feGaussianBlur id="feGaussianBlur3780" inkspace:collect="always" stdDeviation="4.2" />
    </filter>
  </defs>
  <title>blockdiag</title>
  <desc>{
  colwidth = 32
  node_height = 128

  0-1: Type (2) [rotate = 270]
  2-3: Sensor ID [rotate = 270]
  4-7: MCU ID 1 [rotate = 270]
  8-11: MCU ID 2 [rotate = 270]
  12-15: MCU ID 3 [rotate = 270]
  16-19: Index [rotate = 270]
  20-23: Temperature [rotate = 270]
  24-27: Relative Humidity [rotate = 270]
  28-31: Pressure [rotate = 270]
}
</desc>
  <path d="M 64 48 L 64 80" fill="none" stroke="rgb(0,0,0)" />
  <text fill="rgb(0,0,0)" font-family="sans-serif" font-size="11" font-style="normal" font-weight="normal" text-anchor="middle" textLength="6" x="64.0" y="42">0</text>
  <path d="M 88 64 L 88 80" fill="none" stroke="rgb(0,0,0)" />
  <path d="M 112 64 L 112 80" fill="none" stroke="rgb(0,0,0)" />
  <path d="M 136 64 L 136 80" fill="none" stroke="rgb(0,0,0)" />
  <path d="M 160 64 L 160 80" fill="none" stroke="rgb(0,0,0)" />
  <path d="M 184 64 L 184 80" fill="none" stroke="rgb(0,0,0)" />
  <path d="M 208 64 L 208 80" fill="none" stroke="rgb(0,0,0)" />
  <path d="M 232 64 L 232 80" fill="none" stroke="rgb(0,0,0)" />
  <path d="M 256 48 L 256 80" fill="none" stroke="rgb(0,0,0)" />
  <path d="M 280 64 L 280 80" fill="none" stroke="rgb(0,0,0)" />
  <path d="M 304 64 L 304 80" fill="none" stroke="rgb(0,0,0)" />
  <path d="M 328 64 L 328 80" fill="none" stroke="rgb(0,0,0)" />
  <path d="M 352 64 L 352 80" fill="none" stroke="rgb(0,0,0)" />
  <path d="M 376 64 L 376 80" fill="none" stroke="rgb(0,0,0)" />
  <path d="M 400 64 L 400 80" fill="none" stroke="rgb(0,0,0)" />
  <path d="M 424 64 L 424 80" fill="none" stroke="rgb(0,0,0)" />
  <path d="M 448 48 L 448 80" fill="none" stroke="rgb(0,0,0)" />
  <text fill="rgb(0,0,0)" font-family="sans-serif" font-size="11" font-style="normal" font-weight="normal" text-anchor="middle" textLength="12" x="448.0" y="42">16</text>
  <path d="M 472 64 L 472 80" fill="none" stroke="rgb(0,0,0)" />
  <path d="M 496 64 L 496 80" fill="none" stroke="rgb(0,0,0)" />
  <path d="M 520 64 L 520 80" fill="none" stroke="rgb(0,0,0)" />
  <path d="M 544 64 L 544 80" fill="none" stroke="rgb(0,0,0)" />
  <path d="M 568 64 L 568 80" fill="none" stroke="rgb(0,0,0)" />
  <path d="M 592 64 L 592 80" fill="none" stroke="rgb(0,0,0)" />
  <path d="M 616 64 L 616 80" fill="none" stroke="rgb(0,0,0)" />
  <path d="M 640 48 L 640 80" fill="none" stroke="rgb(0,0,0)" />
  <path d="M 664 64 L 664 80" fill="none" stroke="rgb(0,0,0)" />
  <path d="M 688 64 L 688 80" fill="none" stroke="rgb(0,0,0)" />
  <path d="M 712 64 L 712 80" fill="none" stroke="rgb(0,0,0)" />
  <path d="M 736 64 L 736 80" fill="none" stroke="rgb(0,0,0)" />
  <path d="M 760 64 L 760 80" fill="none" stroke="rgb(0,0,0)" />
  <path d="M 784 64 L 784 80" fill="none" stroke="rgb(0,0,0)" />
  <path d="M 808 64 L 808 80" fill="none" stroke="rgb(0,0,0)" />
  <path d="M 832 48 L 832 80" fill="none" stroke="rgb(0,0,0)" />
  <text fill="rgb(0,0,0)" font-family="sans-serif" font-size="11" font-style="normal" font-weight="normal" text-anchor="middle" textLength="12" x="832.0" y="42">32</text>
  <rect fill="rgb(255,255,255)" height="128" stroke="rgb(255,255,255)" width="48" x="64" y="80" />
  <path d="M 64 80 L 112 80" fill="none" stroke="rgb(0,0,0)" />
  <path d="M 112 80 L 112 208" fill="none" stroke="rgb(0,0,0)" />
  <path d="M 112 208 L 64 208" fill="none" stroke="rgb(0,0,0)" />
  <path d="M 64 208 L 64 80" fill="none" stroke="rgb(0,0,0)" />
  <g transform="rotate(270,64,208)">
    <text fill="rgb(0,0,0)" font-family="sans-serif" font-size="11" font-style="normal" font-weight="normal" text-anchor="middle" textLength="48" x="128.0" y="238">Type (2)</text>
  </g>
  <rect fill="rgb(255,255,255)" height="128" stroke="rgb(255,255,255)" width="48" x="112" y="80" />
  <path d="M 112 80 L 160 80" fill="none" stroke="rgb(0,0,0)" />
  <path d="M 160 80 L 160 208" fill="none" stroke="rgb(0,0,0)" />
  <path d="M 160 208 L 112 208" fill="none" stroke="rgb(0,0,0)" />
  <path d="M 112 208 L 112 80" fill="none" stroke="rgb(0,0,0)" />
  <g transform="rotate(270,112,208)">
    <text fill="rgb(0,0,0)" font-family="sans-serif" font-size="11" font-style="normal" font-weight="normal" text-anchor="middle" textLength="54" x="176.0" y="238">Sensor ID</text>
  </g>
  <rect fill="rgb(255,255,255)" height="128" stroke="rgb(255,255,255)" width="96" x="160" y="80" />
  <path d="M 160 80 L 256 80" fill="none" stroke="rgb(0,0,0)" />
  <path d="M 256 80 L 256 208" fill="none" stroke="rgb(0,0,0)" />
  <path d="M 256 208 L 160 208" fill="none" stroke="rgb(0,0,0)" />
  <path d="M 160 208 L 160 80" fill="none" stroke="rgb(0,0,0)" />
  <g transform="rotate(270,160,208)">
    <text fill="rgb(0,0,0)" font-family="sans-serif" font-size="11" font-style="normal" font-weight="normal" text-anchor="middle" textLength="48" x="224.0" y="262">MCU ID 1</text>
  </g>
  <rect fill="rgb(255,255,255)" height="128" stroke="rgb(255,255,255)" width="96" x="256" y="80" />
  <path d="M 256 80 L 352 80" fill="none" stroke="rgb(0,0,0)" />
  <path d="M 352 80 L 352 208" fill="none" stroke="rgb(0,0,0)" />
  <path d="M 352 208 L 256 208" fill="none" stroke="rgb(0,0,0)" />
  <path d="M 256 208 L 256 80" fill="none" stroke="rgb(0,0,0)" />
  <g transform="rotate(270,256,208)">
    <text fill="rgb(0,0,0)" font-family="sans-serif" font-size="11" font-style="normal" font-weight="normal" text-anchor="middle" textLength="48" x="320.0" y="262">MCU ID 2</text>
  </g>
  <rect fill="rgb(255,255,255)" height="128" stroke="rgb(255,255,255)" width="96" x="352" y="80" />
  <path d="M 352 80 L 448 80" fill="none" stroke="rgb(0,0,0)" />
  <path d="M 448 80 L 448 208" fill="none" stroke="rgb(0,0,0)" />
  <path d="M 448 208 L 352 208" fill="none" stroke="rgb(0,0,0)" />
  <path d="M 352 208 L 352 80" fill="none" stroke="rgb(0,0,0)" />
  <g transform="rotate(270,352,208)">
    <text fill="rgb(0,0,0)" font-family="sans-serif" font-size="11" font-style="normal" font-weight="normal" text-anchor="middle" textLength="48" x="416.0" y="262">MCU ID 3</text>
  </g>
  <rect fill="rgb(255,255,255)" height="128" stroke="rgb(255,255,255)" width="96" x="448" y="80" />
  <path d="M 448 80 L 544 80" fill="none" stroke="rgb(0,0,0)" />
  <path d="M 544 80 L 544 208" fill="none" stroke="rgb(0,0,0)" />
  <path d="M 544 208 L 448 208" fill="none" stroke="rgb(0,0,0)" />
  <path d="M 448 208 L 448 80" fill="none" stroke="rgb(0,0,0)" />
  <g transform="rotate(270,448,208)">
    <text fill="rgb(0,0,0)" font-family="sans-serif" font-size="11" font-style="normal" font-weight="normal" text-anchor="middle" textLength="30" x="512.0" y="262">Index</text>
  </g>
  <rect fill="rgb(255,255,255)" height="128" stroke="rgb(255,255,255)" width="96" x="544" y="80" />
  <path d="M 544 80 L 640 80" fill="none" stroke="rgb(0,0,0)" />
  <path d="M 640 80 L 640 208" fill="none" stroke="rgb(0,0,0)" />
  <path d="M 640 208 L 544 208" fill="none" stroke="rgb(0,0,0)" />
  <path d="M 544 208 L 544 80" fill="none" stroke="rgb(0,0,0)" />
  <g transform="rotate(270,544,208)">
    <text fill="rgb(0,0,0)" font-family="sans-serif" font-size="11" font-style="normal" font-weight="normal" text-anchor="middle" textLength="66" x="608.0" y="262">Temperature</text>
  </g>
  <rect fill="rgb(255,255,255)" height="128" stroke="rgb(255,255,255)" width="96" x="640" y="80" />
  <path d="M 640 80 L 736 80" fill="none" stroke="rgb(0,0,0)" />
  <path d="M 736 80 L 736 208" fill="none" stroke="rgb(0,0,0)" />
  <path d="M 736 208 L 640 208" fill="none" stroke="rgb(0,0,0)" />
  <path d="M 640 208 L 640 80" fill="none" stroke="rgb(0,0,0)" />
  <g transform="rotate(270,640,208)">
    <text fill="rgb(0,0,0)" font-family="sans-serif" font-size="11" font-style="normal" font-weight="normal" text-anchor="middle" textLength="102" x="704.0" y="262">Relative Humidity</text>
  </g>
  <rect fill="rgb(255,255,255)" height="128" stroke="rgb(255,255,255)" width="96" x="736" y="80" />
  <path d="M 736 80 L 832 80" fill="none" stroke="rgb(0,0,0)" />
  <path d="M 832 80 L 832 208" fill="none" stroke="rgb(0,0,0)" />
  <path d="M 832 208 L 736 208" fill="none" stroke="rgb(0,0,0)" />
  <path d="M 736 208 L 736 80" fill="none" stroke="rgb(0,0,0)" />
  <g transform="rotate(270,736,208)">
    <text fill="rgb(0,0,0)" font-family="sans-serif" font-size="11" font-style="normal" font-weight="normal" text-anchor="middle" textLength="48" x="800.0" y="262">Pressure</text>
  </g>
</svg>
